<svg xmlns="http://www.w3.org/2000/svg" version="1.1" xmlns:xlink="http://www.w3.org/1999/xlink" xmlns:svgjs="http://svgjs.dev/svgjs" width="2000" height="590" viewBox="0 0 2000 590"><g transform="matrix(1,0,0,1,-1.147762560392266,-1.55797945803414)"><svg viewBox="0 0 396 117" data-background-color="#ffffff" preserveAspectRatio="xMidYMid meet" height="590" width="2000" xmlns="http://www.w3.org/2000/svg" xmlns:xlink="http://www.w3.org/1999/xlink"><g id="tight-bounds" transform="matrix(1,0,0,1,0.24000000000003752,0.3690371645417656)"><svg viewBox="0 0 395.5199999999999 116.26192567091648" height="116.26192567091648" width="395.5199999999999"><g><svg viewBox="0 0 576.2977093259774 169.4009947562101" height="116.26192567091648" width="395.5199999999999"><g transform="matrix(1,0,0,1,180.77770932597738,6.125691839768706)"><svg viewBox="0 0 395.52 157.1496110766727" height="157.1496110766727" width="395.52"><g id="textblocktransform"><svg viewBox="0 0 395.52 157.1496110766727" height="157.1496110766727" width="395.52" id="textblock"><g><rect width="395.52" height="115.15982983725135" fill="none" stroke-width="9.018103199999999" stroke="#000000" data-fill-palette-color="none" data-stroke-palette-color="tertiary"></rect><rect width="395.52" height="41.98978123942134" y="115.15982983725135" fill="#000000" data-fill-palette-color="tertiary"></rect></g><g><svg viewBox="0 0 395.52 115.15982983725135" height="115.15982983725135" width="395.52"><g transform="matrix(1,0,0,1,23.607599999999998,23.607599999999998)"><svg width="348.3048" viewBox="5.35 -42.3 221.18 43.15" height="67.94462983725136" data-palette-color="#000000"><path d="M10.2-4.35L26.05-4.35 26.05 0 5.35 0 5.35-37.9 10.2-37.9 10.2-4.35ZM41.05-27.65Q45.45-27.65 47.75-26.18 50.05-24.7 50.8-22.23 51.55-19.75 51.55-16L51.55-16 51.55 0 46.85 0 46.85-2.75Q44.95-0.95 43.05-0.15 41.15 0.65 38.95 0.65L38.95 0.65Q36.35 0.65 34.25-0.48 32.15-1.6 30.92-3.73 29.7-5.85 29.7-8.75L29.7-8.75Q29.7-13.25 32.5-15.73 35.3-18.2 40.05-18.2L40.05-18.2Q43.8-18.2 46.8-16.55L46.8-16.55Q46.75-19 46.3-20.45 45.85-21.9 44.45-22.68 43.05-23.45 40.3-23.45L40.3-23.45 36.6-23.45 36.6-27.65 41.05-27.65ZM39.6-3.4Q41.3-3.4 43.17-4.2 45.05-5 46.85-6.6L46.85-6.6 46.85-12.9Q44.05-14.3 40.75-14.3L40.75-14.3Q38.1-14.3 36.3-13.03 34.5-11.75 34.5-8.75L34.5-8.75Q34.5-5.95 36.02-4.67 37.55-3.4 39.6-3.4L39.6-3.4ZM77.09 0L67-12.75 64-9.7 64 0 59.3 0 59.3-42.3 64-42.3 64-15.65 75.3-27.3 81.2-27.3 70.2-16 82.8 0 77.09 0ZM91.69-13.45Q91.79-8.85 93.99-6.1 96.19-3.35 100.99-3.35L100.99-3.35Q104.64-3.35 108.99-5.4L108.99-5.4 110.44-1.5Q105.89 0.85 100.59 0.85L100.59 0.85Q96.19 0.85 93.09-1 89.99-2.85 88.39-6.15 86.79-9.45 86.79-13.85L86.79-13.85Q86.79-18.5 88.47-21.78 90.14-25.05 92.99-26.75 95.84-28.45 99.39-28.45L99.39-28.45Q104.84-28.45 107.94-25.05 111.04-21.65 111.04-15.3L111.04-15.3 111.04-13.45 91.69-13.45ZM99.39-24.25Q93.19-24.25 91.99-17.4L91.99-17.4 106.09-17.4Q105.84-20.9 104.19-22.58 102.54-24.25 99.39-24.25L99.39-24.25ZM135.74-27.65L140.64-27.65 130.19 0.45 124.79 0.45 114.24-27.65 119.14-27.65 127.49-4.75 135.74-27.65ZM146.14-32.85L146.14-40.4 150.84-40.4 150.84-32.85 146.14-32.85ZM146.14 0L146.14-27.65 150.84-27.65 150.84 0 146.14 0ZM163.03-13.45Q163.14-8.85 165.34-6.1 167.53-3.35 172.34-3.35L172.34-3.35Q175.99-3.35 180.34-5.4L180.34-5.4 181.79-1.5Q177.24 0.85 171.94 0.85L171.94 0.85Q167.53 0.85 164.44-1 161.34-2.85 159.74-6.15 158.14-9.45 158.14-13.85L158.14-13.85Q158.14-18.5 159.81-21.78 161.49-25.05 164.34-26.75 167.19-28.45 170.74-28.45L170.74-28.45Q176.19-28.45 179.29-25.05 182.39-21.65 182.39-15.3L182.39-15.3 182.39-13.45 163.03-13.45ZM170.74-24.25Q164.53-24.25 163.34-17.4L163.34-17.4 177.44-17.4Q177.19-20.9 175.54-22.58 173.89-24.25 170.74-24.25L170.74-24.25ZM221.63-27.65L226.53-27.65 218.03 0.45 212.98 0.45 206.13-20.75 199.33 0.45 194.28 0.45 185.73-27.65 190.63-27.65 196.83-5.7 203.43-27.65 208.83-27.65 215.48-5.7 221.63-27.65Z" opacity="1" transform="matrix(1,0,0,1,0,0)" fill="#000000" class="wordmark-text-0" data-fill-palette-color="primary" id="text-0"></path></svg></g></svg></g></svg></g></svg></g><g><svg viewBox="0 0 168.9739093259774 169.4009947562101" height="169.4009947562101" width="168.9739093259774"><g><svg xmlns="http://www.w3.org/2000/svg" xmlns:xlink="http://www.w3.org/1999/xlink" version="1.1" x="0" y="0" viewBox="21 20.406064223346203 470 471.1879357766538" style="enable-background:new 0 0 512 512;" xml:space="preserve" height="169.4009947562101" width="168.9739093259774" class="icon-icon-0" data-fill-palette-color="accent" id="icon-0"><g fill="#000000" data-fill-palette-color="accent"><g fill="#000000" data-fill-palette-color="accent"><g fill="#000000" data-fill-palette-color="accent"><g fill="#000000" data-fill-palette-color="accent"><path d="M447.379 151.594C428.841 151.594 413.759 166.676 413.759 185.215V270.676C403.554 267.348 392.002 269.322 383.424 276.545L268.845 373.033A10 10 0 0 0 265.286 380.682V471.593H236.715V380.682A10 10 0 0 0 233.156 373.033L118.576 276.545C109.998 269.321 98.446 267.347 88.241 270.676V185.215C88.241 166.676 73.159 151.594 54.621 151.594 36.082 151.594 21 166.676 21 185.214V340.189A10 10 0 0 0 24.415 347.714L128.98 439.21V471.594H41C35.478 471.594 31 476.071 31 481.594S35.478 491.594 41 491.594H461C466.522 491.594 471 487.116 471 481.594S466.522 471.594 461 471.594H373.02V439.21L477.585 347.715A10 10 0 0 0 481 340.19V185.214C481 166.676 465.918 151.594 447.379 151.594" fill="#000000" data-fill-palette-color="accent"></path><path d="M121 131.594C126.523 131.594 131 127.117 131 121.594V97.697L257.78 41.35 384.56 97.697V121.594C384.56 127.117 389.038 131.594 394.56 131.594S404.56 127.117 404.56 121.594V91.198A10 10 0 0 0 398.622 82.06L261.842 21.268A10 10 0 0 0 253.719 21.268L116.938 82.06A10 10 0 0 0 111 91.198V121.594C111 127.117 115.478 131.594 121 131.594" fill="#000000" data-fill-palette-color="accent"></path><path d="M297.778 281.594H358.086C363.608 281.594 368.086 277.116 368.086 271.594V118.294A10 10 0 0 0 361.309 108.828L261.003 74.681A10 10 0 0 0 254.384 74.742L154.079 110.958A10 10 0 0 0 147.475 120.364V271.594C147.475 277.116 151.953 281.594 157.475 281.594H218.75C224.273 281.594 228.75 277.116 228.75 271.594V205.788C228.75 189.514 241.99 176.274 258.265 176.274 274.538 176.274 287.779 189.514 287.779 205.788V271.594C287.778 277.116 292.256 281.594 297.778 281.594" fill="#000000" data-fill-palette-color="accent"></path><path d="M51 121.594C67.542 121.594 81 108.136 81 91.594S67.542 61.594 51 61.594 21 75.052 21 91.594 34.458 121.594 51 121.594" fill="#000000" data-fill-palette-color="accent"></path><path d="M456 91.594C475.299 91.594 491 75.893 491 56.594S475.299 21.594 456 21.594 421 37.295 421 56.594 436.701 91.594 456 91.594" fill="#000000" data-fill-palette-color="accent"></path></g></g></g></g></svg></g></svg></g></svg></g><defs></defs></svg><rect width="395.5199999999999" height="116.26192567091648" fill="none" stroke="none" visibility="hidden"></rect></g></svg></g></svg>