<svg xmlns="http://www.w3.org/2000/svg" version="1.1" xmlns:xlink="http://www.w3.org/1999/xlink" xmlns:svgjs="http://svgjs.dev/svgjs" width="2000" height="2242" viewBox="0 0 2000 2242"><g transform="matrix(1,0,0,1,-3.115229323475546,0)"><svg viewBox="0 0 321 360" data-background-color="#ffffff" preserveAspectRatio="xMidYMid meet" height="2242" width="2000" xmlns="http://www.w3.org/2000/svg" xmlns:xlink="http://www.w3.org/1999/xlink"><g id="tight-bounds" transform="matrix(1,0,0,1,0.5000056935822386,0)"><svg viewBox="0 0 320 360" height="360" width="320"><g><svg></svg></g><g><svg viewBox="0 0 320 360" height="360" width="320"><g><path transform="translate(-8.74414,11.24127) scale(3.37517,3.37517)" d="M89.9 29.89c-2.6-3.17-7.52-4.8-12.74-6.52-2.24-0.74-4.55-1.51-6.81-2.44-2.28-0.94-4.52-2.15-6.7-3.31-4.43-2.38-9.01-4.84-13.66-4.84-4.64 0-9.22 2.46-13.65 4.84-2.18 1.17-4.43 2.38-6.71 3.32-2.25 0.93-4.57 1.69-6.81 2.44-5.22 1.73-10.14 3.36-12.74 6.52-3.47 4.23-3.39 10.5-3.31 17.13 0.01 1 0.02 1.99 0.02 2.97 0 0.98-0.01 1.97-0.03 2.97-0.08 6.64-0.16 12.9 3.31 17.14 2.6 3.16 7.52 4.79 12.73 6.52 2.24 0.74 4.55 1.51 6.82 2.44 2.28 0.94 4.52 2.14 6.69 3.31 4.44 2.39 9.02 4.85 13.66 4.85 4.65 0 9.23-2.46 13.66-4.84 2.18-1.17 4.42-2.38 6.7-3.31 2.25-0.93 4.55-1.69 6.78-2.43 5.25-1.74 10.17-3.37 12.77-6.53 3.47-4.23 3.39-10.5 3.31-17.13-0.01-1.01-0.03-2-0.03-2.98 0-0.98 0.01-1.97 0.03-2.96 0.11-6.66 0.19-12.93-3.29-17.16zM93.12 27.25c-4.66-5.68-13.57-7.03-21.18-10.17-6.81-2.8-13.74-8.47-21.94-8.47-8.2 0-15.13 5.67-21.94 8.47-7.62 3.14-16.52 4.49-21.18 10.17-5.06 6.16-4.24 14.85-4.24 22.75 0 7.89-0.82 16.59 4.23 22.75 4.66 5.68 13.57 7.03 21.18 10.17 6.81 2.81 13.74 8.47 21.94 8.47 8.2 0 15.13-5.66 21.94-8.47 7.62-3.14 16.52-4.49 21.18-10.17 5.05-6.16 4.23-14.85 4.23-22.75 0.02-7.9 0.84-16.59-4.22-22.75zM94.4 52.94c0.09 6.88 0.17 13.35-3.58 17.92-2.82 3.43-7.9 5.12-13.28 6.9-2.24 0.74-4.53 1.5-6.73 2.41-2.22 0.91-4.43 2.1-6.57 3.25-4.58 2.46-9.29 4.99-14.24 4.99-4.95 0-9.66-2.53-14.22-4.98-2.15-1.16-4.37-2.35-6.59-3.26-2.23-0.92-4.52-1.68-6.74-2.41-5.39-1.78-10.47-3.47-13.28-6.9-3.74-4.56-3.66-11.04-3.58-17.9 0.01-1 0.03-1.98 0.03-2.96 0-0.98-0.01-1.96-0.02-2.96-0.09-6.86-0.17-13.34 3.58-17.9 2.82-3.43 7.9-5.11 13.28-6.9 2.23-0.74 4.52-1.5 6.74-2.41 2.22-0.92 4.44-2.11 6.59-3.26 4.56-2.45 9.28-4.99 14.22-4.99 4.94 0 9.66 2.53 14.22 4.98 2.15 1.16 4.37 2.35 6.59 3.26 2.22 0.92 4.52 1.67 6.73 2.41 5.38 1.78 10.47 3.47 13.28 6.9 3.75 4.57 3.67 11.04 3.58 17.9-0.01 1.01-0.03 1.99-0.03 2.96 0 0.98 0.01 1.96 0.02 2.95z" fill="#ffffff" fill-rule="nonzero" stroke="none" stroke-width="1" stroke-linecap="butt" stroke-linejoin="miter" stroke-miterlimit="10" stroke-dasharray="" stroke-dashoffset="0" font-family="none" font-weight="none" font-size="none" text-anchor="none" style="mix-blend-mode: normal" data-fill-palette-color="tertiary"></path></g><g transform="matrix(1,0,0,1,64.00000000000001,130.69937648136508)"><svg viewBox="0 0 191.99999999999997 98.60124703726986" height="98.60124703726986" width="191.99999999999997"><g><svg viewBox="0 0 407.7445377848051 209.39645780321348" height="98.60124703726986" width="191.99999999999997"><g transform="matrix(1,0,0,1,215.74453778480512,66.8189854495059)"><svg viewBox="0 0 192 75.75848690420169" height="75.75848690420169" width="192"><g id="textblocktransform"><svg viewBox="0 0 192 75.75848690420169" height="75.75848690420169" width="192" id="textblock"><g><rect width="192" height="57.32753949579833" fill="none" stroke-width="5.253264000000001" stroke="#ffffff" data-fill-palette-color="none" data-stroke-palette-color="tertiary"></rect><rect width="192" height="18.430947408403366" y="57.32753949579833" fill="#ffffff" data-fill-palette-color="tertiary"></rect></g><g><svg viewBox="0 0 192 57.32753949579833" height="57.32753949579833" width="192"><g transform="matrix(1,0,0,1,13.752,13.752)"><svg width="164.496" viewBox="4.35 -42.3 237.98000000000002 43.15" height="29.823539495798325" data-palette-color="#e9e2da"><path d="M12.3-6.85L26.6-6.85 26.6 0 4.35 0 4.35-37.9 12.3-37.9 12.3-6.85ZM42.75-28.15Q48-28.15 50.7-26.68 53.4-25.2 54.3-22.75 55.2-20.3 55.2-16.5L55.2-16.5 55.2 0 47.5 0 47.5-2.4Q45.7-0.75 43.97-0.05 42.25 0.65 40.15 0.65L40.15 0.65Q35.55 0.65 32.85-1.88 30.15-4.4 30.15-8.85L30.15-8.85Q30.15-13.4 32.92-15.85 35.7-18.3 40.6-18.3L40.6-18.3Q44.55-18.3 47.5-16.8L47.5-16.8Q47.45-18.45 47.05-19.43 46.65-20.4 45.47-20.93 44.3-21.45 42-21.45L42-21.45 36.8-21.45 36.8-28.15 42.75-28.15ZM41.7-5.4Q44.5-5.4 47.5-7.9L47.5-7.9 47.5-11.45Q44.9-12.7 42.35-12.7L42.35-12.7Q40.35-12.7 39.15-11.8 37.95-10.9 37.95-8.95L37.95-8.95Q37.95-5.4 41.7-5.4L41.7-5.4ZM80.5 0L72.4-10.25 69.9-7.65 69.9 0 62.2 0 62.2-42.3 69.9-42.3 69.9-17.3 79.35-27.3 88.65-27.3 77.45-15.55 89.7 0 80.5 0ZM100.59-11.95Q101.49-5.6 108.49-5.6L108.49-5.6Q110.39-5.6 112.22-6.1 114.04-6.6 116.34-7.7L116.34-7.7 118.39-1.7Q115.84-0.3 113.32 0.28 110.79 0.85 107.49 0.85L107.49 0.85Q102.69 0.85 99.29-1.03 95.89-2.9 94.14-6.28 92.39-9.65 92.39-14.1L92.39-14.1Q92.39-18.8 94.19-22.15 95.99-25.5 99.09-27.23 102.19-28.95 105.99-28.95L105.99-28.95Q112.04-28.95 115.47-25.4 118.89-21.85 118.89-15L118.89-15 118.89-11.95 100.59-11.95ZM105.99-22.5Q103.89-22.5 102.57-21.4 101.24-20.3 100.74-17.8L100.74-17.8 110.84-17.8Q110.59-20.25 109.39-21.38 108.19-22.5 105.99-22.5L105.99-22.5ZM142.59-28.15L150.49-28.15 141.04 0.45 131.14 0.45 121.59-28.15 129.49-28.15 136.09-6.7 142.59-28.15ZM155.24-32.8L155.24-40.35 162.94-40.35 162.94-32.8 155.24-32.8ZM155.24 0L155.24-28.15 162.94-28.15 162.94 0 155.24 0ZM176.88-11.95Q177.78-5.6 184.78-5.6L184.78-5.6Q186.69-5.6 188.51-6.1 190.34-6.6 192.63-7.7L192.63-7.7 194.69-1.7Q192.13-0.3 189.61 0.28 187.09 0.85 183.78 0.85L183.78 0.85Q178.99 0.85 175.59-1.03 172.19-2.9 170.44-6.28 168.69-9.65 168.69-14.1L168.69-14.1Q168.69-18.8 170.49-22.15 172.28-25.5 175.38-27.23 178.49-28.95 182.28-28.95L182.28-28.95Q188.34-28.95 191.76-25.4 195.19-21.85 195.19-15L195.19-15 195.19-11.95 176.88-11.95ZM182.28-22.5Q180.19-22.5 178.86-21.4 177.53-20.3 177.03-17.8L177.03-17.8 187.13-17.8Q186.88-20.25 185.69-21.38 184.49-22.5 182.28-22.5L182.28-22.5ZM234.43-28.15L242.33-28.15 234.83 0.45 225.78 0.45 220.33-17.3 214.88 0.45 205.83 0.45 198.28-28.15 206.18-28.15 210.53-9.15 215.73-28.15 224.88-28.15 230.13-9.15 234.43-28.15Z" opacity="1" transform="matrix(1,0,0,1,0,0)" fill="#000000" class="wordmark-text-0" data-fill-palette-color="quaternary" id="text-0"></path></svg></g></svg></g></svg></g></svg></g><g><svg viewBox="0 0 208.8685377848051 209.39645780321348" height="209.39645780321348" width="208.8685377848051"><g><svg xmlns="http://www.w3.org/2000/svg" xmlns:xlink="http://www.w3.org/1999/xlink" version="1.1" x="0" y="0" viewBox="21 20.406064223346203 470 471.1879357766538" style="enable-background:new 0 0 512 512;" xml:space="preserve" height="209.39645780321348" width="208.8685377848051" class="icon-icon-0" data-fill-palette-color="quaternary" id="icon-0"><g fill="#e9e2da" data-fill-palette-color="quaternary"><g fill="#e9e2da" data-fill-palette-color="quaternary"><g fill="#e9e2da" data-fill-palette-color="quaternary"><g fill="#e9e2da" data-fill-palette-color="quaternary"><path d="M447.379 151.594C428.841 151.594 413.759 166.676 413.759 185.215V270.676C403.554 267.348 392.002 269.322 383.424 276.545L268.845 373.033A10 10 0 0 0 265.286 380.682V471.593H236.715V380.682A10 10 0 0 0 233.156 373.033L118.576 276.545C109.998 269.321 98.446 267.347 88.241 270.676V185.215C88.241 166.676 73.159 151.594 54.621 151.594 36.082 151.594 21 166.676 21 185.214V340.189A10 10 0 0 0 24.415 347.714L128.98 439.21V471.594H41C35.478 471.594 31 476.071 31 481.594S35.478 491.594 41 491.594H461C466.522 491.594 471 487.116 471 481.594S466.522 471.594 461 471.594H373.02V439.21L477.585 347.715A10 10 0 0 0 481 340.19V185.214C481 166.676 465.918 151.594 447.379 151.594" fill="#000000" data-fill-palette-color="quaternary"></path><path d="M121 131.594C126.523 131.594 131 127.117 131 121.594V97.697L257.78 41.35 384.56 97.697V121.594C384.56 127.117 389.038 131.594 394.56 131.594S404.56 127.117 404.56 121.594V91.198A10 10 0 0 0 398.622 82.06L261.842 21.268A10 10 0 0 0 253.719 21.268L116.938 82.06A10 10 0 0 0 111 91.198V121.594C111 127.117 115.478 131.594 121 131.594" fill="#000000" data-fill-palette-color="quaternary"></path><path d="M297.778 281.594H358.086C363.608 281.594 368.086 277.116 368.086 271.594V118.294A10 10 0 0 0 361.309 108.828L261.003 74.681A10 10 0 0 0 254.384 74.742L154.079 110.958A10 10 0 0 0 147.475 120.364V271.594C147.475 277.116 151.953 281.594 157.475 281.594H218.75C224.273 281.594 228.75 277.116 228.75 271.594V205.788C228.75 189.514 241.99 176.274 258.265 176.274 274.538 176.274 287.779 189.514 287.779 205.788V271.594C287.778 277.116 292.256 281.594 297.778 281.594" fill="#000000" data-fill-palette-color="quaternary"></path><path d="M51 121.594C67.542 121.594 81 108.136 81 91.594S67.542 61.594 51 61.594 21 75.052 21 91.594 34.458 121.594 51 121.594" fill="#000000" data-fill-palette-color="quaternary"></path><path d="M456 91.594C475.299 91.594 491 75.893 491 56.594S475.299 21.594 456 21.594 421 37.295 421 56.594 436.701 91.594 456 91.594" fill="#000000" data-fill-palette-color="quaternary"></path></g></g></g></g></svg></g></svg></g></svg></g></svg></g></svg></g><defs></defs></svg><rect width="320" height="360" fill="none" stroke="none" visibility="hidden"></rect></g></svg></g></svg>